<?xml version="1.0" encoding="utf-8"?>
<!-- Generator: Adobe Illustrator 26.3.1, SVG Export Plug-In . SVG Version: 6.00 Build 0)  -->
<svg version="1.1" id="Layer_1" xmlns="http://www.w3.org/2000/svg" xmlns:xlink="http://www.w3.org/1999/xlink" x="0px" y="0px"
	 viewBox="0 0 32 32" style="enable-background:new 0 0 32 32;" xml:space="preserve">
<style type="text/css">
	.st0{fill:#E05151;}
	.st1{fill:none;stroke:#E05151;stroke-miterlimit:10;}
</style>
<path class="st0" d="M-24.25-18.26l12.05,12.05v-2.55l-0.13-0.13l-9.38-9.38l9.5-9.48v-0.15v-2.42l-1.46,1.46l0,0L-24.25-18.26z
	 M-15.34-9.86l-8.39-8.4l10.59-10.59l0,0l0.59-0.59v1.55l-9.65,9.63l9.65,9.65v1.53l-0.79-0.78L-15.34-9.86z"/>
<polygon class="st1" points="19.63,5.92 20.85,4.69 22.43,3.11 22.43,6.27 12.71,15.99 22.45,25.72 22.45,28.89 20.87,27.3 
	20.24,26.68 9.55,15.99 "/>
</svg>
